PathFileType	4	(X/Y/Z)	C:/Users/beibeiliu/ov580/test_trc/User1\sequence.6_training_dense_left.trc
DataRate	CameraRate	NumFrames	NumMarkers	Units	OrigDataRate	OrigDataStartFrame	OrigNumFrames
120	120	10	19	mm	120	174	277
Frame#	Time	ThumbCMC			ThumbMCP			ThumbIP			ThumbTip			IndexMCP			IndexPIP			IndexTip			MiddleMCP			MiddlePIP			MiddleTip			RingMCP			RingPIP			RingTip			PinkyMCP			PinkyPIP			PinkyTip			BackHand1			BackHand2			BackHand3	
		X0	Y0	Z0	X1	Y1	Z1	X2	Y2	Z2	X3	Y3	Z3	X4	Y4	Z4	X5	Y5	Z5	X6	Y6	Z6	X7	Y7	Z7	X8	Y8	Z8	X9	Y9	Z9	X10	Y10	Z10	X11	Y11	Z11	X12	Y12	Z12	X13	Y13	Z13	X14	Y14	Z14	X15	Y15	Z15	X16	Y16	Z16	X17	Y17	Z17	X18	Y18	Z18	
173	1.44167	-189.455	141.008	-3.91179	-157.221	136.792	-24.7884	-138.684	133.24	-48.6165	-123.836	123.45	-62.2377	-192.117	120.289	-82.8611	-172.496	113.61	-109.649	-150.41	103.182	-120.099	-180.487	92.8555	-81.9001	-143.046	94.8941	-82.9991	-129.566	103.912	-46.617	-173.107	74.75	-66.9503	-138.747	74.3278	-62.3255	-126.317	92.4023	-35.8836	-173.031	55.297	-48.3963	-145.973	67.7097	-45.0869	-138.858	91.7427	-24.9407	-220.961	84.9335	-24.2052	-227.851	88.3943	6.679	-224.118	122.105	-15.9515	
174	1.45	-188.699	140.99	-3.82972	-158.499	136.442	-24.6016	-138.688	133.941	-47.7396	-126.179	122.309	-62.2443	-186.728	125.747	-82.1148	-161.466	114.298	-102.733	-131.973	108.582	-108.731	-177.86	94.6772	-82.2436	-140.507	94.95	-79.9941	-127.706	99.9473	-47.7784	-169.899	71.9523	-67.7869	-137.364	80.8368	-61.9136	-127.953	90.7199	-33.0139	-172.453	54.9973	-48.4853	-146.661	67.64	-47.5868	-140.204	90.6757	-25.9818	-220.351	80.7413	-26.9522	-229.94	86.8917	7.14221	-223.965	121.162	-14.4339	
175	1.45833	-189.026	141.517	0.378212	-155.658	139.498	-23.4639	-140.472	131.435	-45.126	-121.037	125.474	-61.4799	-181.545	121.968	-81.3971	-157.828	119.83	-98.075	-125.623	112.821	-98.9366	-175.987	94.5823	-82.5446	-141.954	93.3472	-81.6636	-126.666	101.604	-43.2901	-170.489	74.3936	-67.8962	-137.296	81.3655	-61.5847	-128.51	90.3992	-34.7217	-172.259	54.0725	-49.3171	-146.691	65.6684	-46.9973	-140.344	90.8096	-26.5261	-219.516	84.2071	-22.2127	-229.121	89.7564	6.89792	-223.529	121.491	-12.9594	
176	1.46667	-187.189	141.788	-3.52045	-154.899	139.273	-22.88	-139.107	132.45	-43.9076	-121.944	125.088	-60.5854	-180.4	121.674	-80.6292	-151.053	113.914	-95.5674	-124.163	110.103	-93.0968	-175.332	94.9677	-81.9679	-141.991	96.058	-81.2922	-125.601	103.704	-42.7836	-170.955	73.4873	-67.429	-137.842	75.8299	-62.0119	-128.951	91.7389	-31.0754	-174.043	58.4584	-50.7863	-144.458	65.8342	-44.3538	-141.158	89.2789	-24.5217	-219.656	82.5782	-23.3682	-229.64	88.3164	7.27869	-223.241	122.387	-16.2684	
177	1.475	-186.964	145.981	-2.01588	-154.329	140.229	-22.9641	-140.096	133.756	-42.6848	-123.568	122.968	-63.2768	-182.176	123.509	-84.7529	-157.46	113.771	-98.9953	-124.635	110.777	-96.3117	-179.221	96.1564	-80.3953	-140.516	95.2436	-79.9523	-128.729	101.367	-45.8136	-171.531	77.1172	-69.5159	-139.649	76.5417	-63.5822	-128.207	91.507	-32.2836	-177.108	55.2947	-46.6521	-146.46	64.2921	-45.7758	-142.069	89.7119	-22.9622	-219.674	82.6768	-26.2443	-229.344	87.2329	11.3998	-224.75	121.033	-12.9354	
178	1.48333	-185.944	146.432	-2.00919	-157.684	136.728	-23.5917	-137.875	135.002	-46.6942	-121.49	124.583	-62.4173	-190.817	125.958	-81.6229	-170.361	113.827	-104.649	-136.373	111.222	-111.045	-179.823	100.3	-85.1753	-144.252	98.6001	-82.9428	-131.735	104.521	-48.3008	-175.486	77.9972	-69.2343	-139.684	75.999	-62.8898	-128.355	92.0374	-36.6371	-175.299	56.2535	-49.0852	-150.388	66.6871	-48.5055	-144.061	91.7365	-27.0392	-219.964	82.6177	-23.5478	-230.119	92.3497	8.44554	-224.839	124.804	-12.2007	
179	1.49167	-183.931	147.069	1.38325	-154.495	140.165	-19.2552	-139.156	131.582	-45.5334	-124.826	121.049	-60.579	-197.061	128.579	-84.248	-186.396	124.383	-106.906	-161.623	110.669	-122.595	-186.512	103.684	-83.2316	-152.148	99.1441	-88.2322	-136.286	102.704	-51.8864	-179.322	76.3509	-67.9014	-145.775	79.3263	-67.2915	-131.526	90.6356	-36.9954	-178.425	58.4705	-50.6431	-151.424	69.7366	-49.2863	-144.592	90.2885	-27.643	-222.042	87.2233	-20.1508	-228.263	96.0665	13.3115	-223.569	126.345	-7.92629	
180	1.5	-179.703	146.17	2.32228	-150.369	138.36	-18.225	-135.108	130.758	-48.3934	-125.562	114.389	-66.2209	-199.819	133.89	-76.1944	-192.443	128.515	-106.825	-178.339	123.017	-130.133	-185.563	109.235	-85.1059	-150.971	102.308	-86.6503	-138.894	104.436	-49.7379	-180.29	80.9287	-72.3852	-149.882	82.154	-70.2533	-135.957	88.5586	-37.1352	-184.728	66.3429	-54.5829	-157.22	69.5517	-53.6458	-146.142	88.0215	-30.2909	-223.528	98.1474	-22.6266	-231.583	98.6579	9.85046	-219.436	128.909	-5.99936	
181	1.50833	-173.128	143.351	5.52814	-142.956	135.267	-20.1812	-131.538	128.295	-43.0811	-123.752	112.644	-65.9743	-195.615	145.599	-76.2461	-193.396	141.098	-98.7387	-186.403	137.435	-129.866	-186.605	114.995	-82.0512	-154.109	106.423	-87.868	-141.018	101.294	-46.7456	-187.574	87.7015	-70.0239	-150.463	81.6001	-68.0122	-140.274	84.5448	-39.8577	-194.993	68.3007	-54.1863	-163.359	72.6154	-57.207	-149.114	83.7886	-31.0847	-223.47	105.979	-20.6942	-228.851	104.435	15.5552	-215.189	135.212	-6.66328	
182	1.51667	-166.035	139.832	13.6114	-138.284	129.523	-15.2758	-127.06	122.903	-42.1301	-120.448	109.692	-61.9275	-187.444	152.457	-67.4135	-187.129	151.624	-92.7013	-186.736	148.673	-123.151	-182.339	122.803	-79.9419	-149.618	104.252	-83.3187	-140.837	98.014	-49.4763	-183.005	98.1498	-72.4063	-153.622	82.6929	-69.542	-143.017	79.5228	-36.1555	-197.516	77.1385	-58.7872	-170.44	68.0375	-62.1364	-152.938	78.4715	-33.2416	-221.322	110.824	-18.3817	-227.034	112.007	17.4964	-207.423	140.915	0.564096	
